<svg xmlns="http://www.w3.org/2000/svg" viewBox="0 0 128 128" width="128" height="128">
  <defs>
    <linearGradient id="bg" x1="0%" y1="0%" x2="100%" y2="100%">
      <stop offset="0%" style="stop-color:#1a3a5c"/>
      <stop offset="100%" style="stop-color:#0d2137"/>
    </linearGradient>
    <linearGradient id="polar" x1="20%" y1="0%" x2="80%" y2="100%">
      <stop offset="0%" style="stop-color:#00d4ff"/>
      <stop offset="100%" style="stop-color:#0088cc"/>
    </linearGradient>
  </defs>

  <!-- Background -->
  <circle cx="64" cy="64" r="62" fill="url(#bg)" stroke="#2a5a8c" stroke-width="2"/>

  <!-- Grid rings -->
  <circle cx="34" cy="50" r="52" fill="none" stroke="#2a4a6c" stroke-width="0.7" opacity="0.35"/>
  <circle cx="34" cy="50" r="35" fill="none" stroke="#2a4a6c" stroke-width="0.7" opacity="0.25"/>
  <circle cx="34" cy="50" r="18" fill="none" stroke="#2a4a6c" stroke-width="0.7" opacity="0.18"/>

  <!-- Vertical axis -->
  <line x1="34" y1="4" x2="34" y2="118" stroke="#2a4a6c" stroke-width="0.7" opacity="0.35"/>

  <!-- Wind arrow -->
  <line x1="34" y1="5" x2="34" y2="18" stroke="#88bbdd" stroke-width="2" opacity="0.8"/>
  <polygon points="34,18 31.5,12.5 36.5,12.5" fill="#88bbdd" opacity="0.8"/>

  <!-- Polar curve — starboard half -->
  <path d="M 34,50 L 36.9,44.9 L 42.0,37.7 L 46.7,32.5 L 49.6,30.7 L 52.6,29.3 L 55.7,28.3 L 58.8,27.7 L 62.0,27.4 L 65.1,27.4 L 68.1,27.9 L 71.0,28.6 L 73.8,29.7 L 76.5,31.1 L 78.9,32.8 L 81.1,34.7 L 83.0,36.9 L 84.7,39.2 L 86.1,41.8 L 87.1,44.4 L 87.7,47.2 L 88.0,50.0 L 87.5,52.8 L 86.8,55.5 L 85.8,58.2 L 84.7,60.8 L 83.4,63.2 L 82.0,65.6 L 80.5,67.8 L 78.8,69.9 L 77.0,71.9 L 75.1,73.7 L 73.2,75.4 L 71.1,77.0 L 69.0,78.4 L 66.9,79.6 L 64.7,80.7 L 62.5,81.6 L 60.2,82.4 L 58.0,83.0 L 55.8,83.5 L 53.5,83.8 L 51.3,84.0 L 49.2,84.0 L 47.0,83.9 L 44.9,83.7 L 42.9,83.3 L 41.0,82.8 L 39.1,82.2 L 37.3,81.5 L 35.6,80.6 L 34.0,79.7 L 34,79.7 Z"
        fill="url(#polar)" fill-opacity="0.22" stroke="url(#polar)" stroke-width="2.5" stroke-linejoin="round"/>

  <!-- Origin dot -->
  <circle cx="34" cy="50" r="3" fill="#ffffff" opacity="0.9"/>
</svg>
