<svg xmlns="http://www.w3.org/2000/svg" viewBox="0 0 128 128" width="128" height="128">
  <defs>
    <linearGradient id="bg" x1="0%" y1="0%" x2="100%" y2="100%">
      <stop offset="0%" style="stop-color:#1a3a5c"/>
      <stop offset="100%" style="stop-color:#0d2137"/>
    </linearGradient>
    <linearGradient id="polar" x1="20%" y1="0%" x2="80%" y2="100%">
      <stop offset="0%" style="stop-color:#00d4ff"/>
      <stop offset="100%" style="stop-color:#0088cc"/>
    </linearGradient>
    <linearGradient id="accent" x1="0%" y1="0%" x2="0%" y2="100%">
      <stop offset="0%" style="stop-color:#ff6b35"/>
      <stop offset="100%" style="stop-color:#cc4400"/>
    </linearGradient>
  </defs>

  <!-- Background circle -->
  <circle cx="64" cy="64" r="62" fill="url(#bg)" stroke="#2a5a8c" stroke-width="2"/>

  <!-- Grid rings (centered on polar origin) -->
  <circle cx="34" cy="50" r="54" fill="none" stroke="#2a4a6c" stroke-width="0.5" opacity="0.4"/>
  <circle cx="34" cy="50" r="40" fill="none" stroke="#2a4a6c" stroke-width="0.5" opacity="0.3"/>
  <circle cx="34" cy="50" r="27" fill="none" stroke="#2a4a6c" stroke-width="0.5" opacity="0.2"/>
  <circle cx="34" cy="50" r="14" fill="none" stroke="#2a4a6c" stroke-width="0.5" opacity="0.15"/>

  <!-- Vertical axis (wind line) -->
  <line x1="34" y1="4" x2="34" y2="120" stroke="#2a4a6c" stroke-width="0.7" opacity="0.35"/>

  <!-- Wind arrow -->
  <line x1="34" y1="5" x2="34" y2="20" stroke="#88bbdd" stroke-width="1.8" opacity="0.75"/>
  <polygon points="34,20 31.5,14.5 36.5,14.5" fill="#88bbdd" opacity="0.75"/>

  <!-- Outer polar curve (high TWS) -->
  <path d="M 34,50 L 36.9,44.9 L 42.0,37.7 L 46.7,32.5 L 49.6,30.7 L 52.6,29.3 L 55.7,28.3 L 58.8,27.7 L 62.0,27.4 L 65.1,27.4 L 68.1,27.9 L 71.0,28.6 L 73.8,29.7 L 76.5,31.1 L 78.9,32.8 L 81.1,34.7 L 83.0,36.9 L 84.7,39.2 L 86.1,41.8 L 87.1,44.4 L 87.7,47.2 L 88.0,50.0 L 87.5,52.8 L 86.8,55.5 L 85.8,58.2 L 84.7,60.8 L 83.4,63.2 L 82.0,65.6 L 80.5,67.8 L 78.8,69.9 L 77.0,71.9 L 75.1,73.7 L 73.2,75.4 L 71.1,77.0 L 69.0,78.4 L 66.9,79.6 L 64.7,80.7 L 62.5,81.6 L 60.2,82.4 L 58.0,83.0 L 55.8,83.5 L 53.5,83.8 L 51.3,84.0 L 49.2,84.0 L 47.0,83.9 L 44.9,83.7 L 42.9,83.3 L 41.0,82.8 L 39.1,82.2 L 37.3,81.5 L 35.6,80.6 L 34.0,79.7 L 34,79.7 Z"
        fill="url(#polar)" fill-opacity="0.18" stroke="url(#polar)" stroke-width="1.8" stroke-linejoin="round"/>

  <!-- Inner polar curve (lower TWS) -->
  <path d="M 34,50 L 35.9,46.7 L 39.2,42.0 L 42.3,38.6 L 44.1,37.5 L 46.1,36.6 L 48.1,35.9 L 50.1,35.5 L 52.2,35.3 L 54.2,35.3 L 56.2,35.6 L 58.1,36.1 L 59.9,36.8 L 61.6,37.7 L 63.2,38.8 L 64.6,40.1 L 65.9,41.5 L 67.0,43.0 L 67.8,44.6 L 68.5,46.4 L 68.9,48.2 L 69.1,50.0 L 68.8,51.8 L 68.3,53.6 L 67.7,55.3 L 67.0,57.0 L 66.1,58.6 L 65.2,60.1 L 64.2,61.6 L 63.1,63.0 L 62.0,64.2 L 60.7,65.4 L 59.5,66.5 L 58.1,67.5 L 56.8,68.4 L 55.4,69.3 L 54.0,70.0 L 52.5,70.6 L 51.1,71.1 L 49.6,71.5 L 48.1,71.8 L 46.7,72.0 L 45.3,72.1 L 43.8,72.1 L 42.5,72.0 L 41.1,71.9 L 39.8,71.6 L 38.5,71.3 L 37.3,70.9 L 36.1,70.4 L 35.0,69.9 L 34.0,69.3 L 34,69.3 Z"
        fill="none" stroke="url(#polar)" stroke-width="1" stroke-opacity="0.35" stroke-linejoin="round"/>

  <!-- Current position marker -->
  <circle cx="83.0" cy="36.9" r="3.5" fill="url(#accent)" stroke="#fff" stroke-width="1.5"/>

  <!-- Dashed line from origin to position -->
  <line x1="34" y1="50" x2="83.0" y2="36.9" stroke="#ff6b35" stroke-width="1" stroke-dasharray="3,2" opacity="0.5"/>

  <!-- Origin dot -->
  <circle cx="34" cy="50" r="2" fill="#ffffff" opacity="0.85"/>
</svg>
